<?xml version="1.0" standalone="no"?>
<!DOCTYPE svg PUBLIC "-//W3C//DTD SVG 20010904//EN"
 "http://www.w3.org/TR/2001/REC-SVG-20010904/DTD/svg10.dtd">
<svg version="1.0" xmlns="http://www.w3.org/2000/svg"
 width="526.000000pt" height="789.000000pt" viewBox="0 0 526.000000 789.000000"
 preserveAspectRatio="xMidYMid meet">

<g transform="translate(0.000000,789.000000) scale(0.100000,-0.100000)"
fill="#000000" stroke="none">
<path d="M0 3945 l0 -3945 715 0 c707 0 714 0 725 20 8 16 8 24 -4 35 -11 11
-16 12 -19 2 -3 -6 -6 -3 -6 7 -1 11 -10 38 -21 60 -11 23 -28 75 -38 116 -11
41 -36 108 -56 148 -37 73 -37 75 -37 195 0 142 4 161 72 424 109 423 119 464
119 483 0 12 -17 29 -45 46 -25 14 -45 29 -45 33 0 4 13 22 29 41 27 33 29 38
24 110 -5 72 -4 78 27 130 19 30 40 62 47 72 9 9 23 78 34 165 24 180 39 241
78 323 17 35 30 64 28 66 -1 1 -27 4 -57 8 -53 6 -54 5 -25 -9 17 -8 24 -14
18 -15 -7 0 -12 -6 -10 -12 1 -7 -3 -12 -10 -11 -6 2 -17 -13 -23 -31 -6 -19
-16 -36 -23 -39 -16 -6 -77 3 -77 12 0 6 -39 25 -77 36 -21 6 -23 3 -23 -37 0
-24 -7 -51 -14 -61 -7 -9 -12 -32 -9 -51 2 -19 -1 -37 -7 -41 -5 -3 -10 -14
-10 -25 0 -19 -25 -34 -41 -24 -15 9 -10 34 7 34 8 0 12 5 9 10 -4 6 -10 8
-15 5 -18 -11 -20 15 -5 57 8 24 15 51 15 61 0 11 8 17 23 17 18 0 19 2 7 10
-8 5 -11 10 -6 10 5 0 3 7 -5 16 -10 13 -10 17 1 24 7 4 10 15 7 24 -4 9 0 35
8 58 7 23 12 45 9 50 -3 4 5 8 18 9 24 0 11 6 -182 75 -98 35 -272 116 -314
147 -18 13 -17 19 32 123 43 94 97 218 172 394 10 25 34 81 53 125 19 44 65
152 103 240 37 88 97 224 133 301 78 168 95 185 291 283 69 35 152 78 185 96
33 19 118 57 189 85 207 82 215 88 295 220 33 53 68 91 103 111 13 7 16 6 12
-4 -3 -8 -16 -19 -28 -25 -14 -6 -37 -37 -54 -72 -28 -55 -31 -69 -31 -159 0
-63 5 -107 14 -124 7 -15 19 -61 25 -104 14 -89 30 -131 67 -164 l26 -24 -6
38 c-3 20 -2 37 3 37 19 0 85 -91 130 -180 26 -52 60 -106 75 -120 15 -14 45
-47 66 -73 22 -27 39 -42 39 -34 0 8 -29 52 -65 97 -35 44 -78 107 -95 138
-17 31 -55 87 -84 124 -52 65 -86 143 -86 198 0 11 -6 33 -14 48 -17 33 -24
92 -11 89 16 -4 40 146 45 283 0 18 12 2 43 -60 23 -47 45 -87 48 -90 4 -3 9
-14 13 -26 9 -29 54 -70 106 -97 51 -26 80 -74 80 -132 0 -43 24 -75 58 -75
19 -1 52 -23 52 -36 1 -19 39 -54 59 -54 11 0 42 5 70 11 41 8 53 17 70 45 12
20 18 41 14 52 -6 14 -4 15 9 4 9 -7 18 -9 21 -5 5 9 23 91 32 144 3 21 15 49
27 65 l22 27 -21 61 c-14 39 -16 54 -7 41 26 -37 107 -115 118 -115 6 0 58
-23 116 -51 58 -28 128 -60 155 -72 28 -12 82 -40 120 -62 39 -23 118 -67 178
-98 121 -63 184 -109 198 -144 22 -59 88 -328 148 -608 38 -174 116 -504 152
-640 33 -126 34 -135 15 -135 -8 0 -32 -15 -55 -34 -27 -23 -64 -40 -118 -54
-102 -28 -210 -50 -281 -58 l-57 -6 1 124 c0 137 15 383 41 681 14 166 14 206
4 248 -8 29 -10 70 -7 97 l6 47 -17 -30 -17 -30 -7 40 c-5 22 -6 99 -4 170 4
128 4 129 -13 95 -15 -31 -17 -75 -17 -350 -1 -192 -5 -344 -13 -390 -17 -108
-31 -248 -37 -375 -10 -185 -27 -369 -35 -385 -5 -9 -4 -23 1 -32 13 -23 -6
-321 -30 -458 -10 -63 -22 -137 -26 -165 -4 -27 -10 -54 -15 -60 -12 -16 -29
-103 -41 -215 -10 -99 -14 -113 -57 -178 -7 -11 -17 -11 -49 -2 -32 10 -49 9
-92 -4 -43 -13 -67 -14 -120 -6 -36 5 -140 14 -231 19 -138 9 -176 14 -229 36
-36 14 -71 25 -78 25 -7 0 -13 4 -13 9 0 5 -19 9 -43 9 -24 1 -55 6 -69 11
-62 23 -285 8 -483 -34 -38 -8 -140 -21 -225 -30 -184 -18 -210 -23 -210 -37
0 -11 82 -9 445 11 177 10 188 4 124 -67 -78 -87 -221 -306 -278 -425 -43 -90
-78 -225 -96 -367 -18 -141 -44 -294 -73 -422 l-20 -88 128 0 c143 0 140 -2
137 73 -1 21 -9 42 -17 47 -11 7 -12 10 -2 10 11 0 12 10 6 43 -4 23 -7 54 -6
69 1 16 -3 28 -8 28 -5 0 -7 7 -4 15 4 8 -1 17 -10 21 -21 8 -21 24 0 24 11 0
14 5 10 16 -3 8 -2 24 4 34 8 15 6 17 -8 14 -13 -4 -17 2 -19 23 -4 66 -15
139 -24 158 -9 19 1 72 42 225 19 67 95 216 199 390 51 85 94 156 94 157 1 1
30 -2 66 -6 62 -8 108 0 120 19 3 5 73 10 156 12 117 2 155 0 167 -11 13 -10
17 -10 17 -1 0 16 48 4 72 -17 9 -8 21 -12 27 -9 5 3 22 1 37 -4 14 -6 83 -12
153 -15 161 -5 192 -13 210 -49 l14 -29 16 27 c10 16 24 26 39 26 13 0 36 7
51 15 43 22 44 22 88 -205 8 -41 21 -109 29 -150 8 -41 22 -138 31 -214 14
-120 14 -152 3 -235 -7 -53 -17 -104 -22 -114 -5 -10 -11 -39 -13 -65 -2 -26
-6 -58 -10 -72 -4 -14 -10 -41 -15 -60 l-8 -35 -1 42 c0 23 -5 44 -10 47 -9 6
-21 -40 -21 -79 0 -13 -6 -26 -13 -28 -9 -4 -9 -6 1 -6 7 -1 10 -5 7 -11 -4
-6 -16 -4 -31 6 -13 9 -24 15 -25 13 -10 -48 -3 -93 12 -83 5 3 7 9 4 14 -3 4
15 10 40 12 44 3 60 -7 30 -18 -8 -3 -21 -19 -29 -35 l-14 -29 899 0 899 0 0
3945 0 3945 -2630 0 -2630 0 0 -3945z m2951 1588 c13 -16 12 -17 -3 -4 -10 7
-18 15 -18 17 0 8 8 3 21 -13z m-61 -23 c0 -5 -4 -10 -9 -10 -6 0 -13 5 -16
10 -3 6 1 10 9 10 9 0 16 -4 16 -10z m78 -41 c12 -18 11 -19 -5 -10 -44 25
-49 31 -28 31 11 0 26 -9 33 -21z m-583 -32 c8 -16 15 -40 14 -51 0 -12 -3
-15 -6 -9 -3 9 -15 5 -39 -13 -37 -29 -46 -72 -19 -94 8 -7 15 -18 15 -24 0
-6 9 -17 20 -24 15 -9 20 -23 20 -57 0 -52 -13 -57 -44 -18 -44 57 -59 104
-60 193 -1 77 1 87 23 111 30 32 55 28 76 -14z m467 -10 c23 -27 36 -57 25
-57 -2 0 -22 9 -45 20 -22 11 -46 20 -51 20 -12 0 -33 35 -25 42 2 3 19 5 36
6 25 1 39 -7 60 -31z m78 13 c14 -11 21 -20 15 -20 -5 0 -21 9 -35 20 -14 11
-20 20 -15 20 6 0 21 -9 35 -20z m-195 -80 c19 -8 19 -9 -2 -9 -12 -1 -25 4
-28 9 -7 12 2 12 30 0z m-345 -75 c-7 -8 -16 -12 -21 -9 -15 9 -10 43 9 53 13
8 18 6 20 -10 2 -11 -2 -27 -8 -34z m604 2 c-3 -9 -10 -17 -15 -17 -11 0 -12
34 -2 43 11 12 24 -8 17 -26z m-340 -11 c-3 -8 -1 -24 6 -35 12 -24 58 -29 79
-8 10 10 11 9 6 -5 -9 -22 -29 -29 -65 -21 -48 9 -80 66 -42 76 9 3 18 5 19 6
1 0 0 -5 -3 -13z m-21 -107 c80 -43 117 -38 202 27 47 35 67 34 78 -4 8 -24 6
-41 -6 -70 -9 -20 -19 -58 -23 -85 -3 -26 -10 -50 -15 -53 -5 -3 -9 -27 -9
-53 0 -62 -26 -91 -66 -73 -31 15 -74 16 -74 2 0 -9 29 -15 53 -11 10 1 9 -8
-8 -54 -7 -22 -17 -39 -22 -39 -4 1 -45 4 -90 8 -64 5 -83 4 -83 -6 0 -10 -3
-9 -9 1 -7 11 -11 9 -20 -8 -14 -26 -29 -27 -38 -3 -4 9 -10 19 -13 22 -4 3
-19 23 -33 46 -27 44 -40 131 -19 127 7 -2 12 4 12 12 0 8 -4 15 -10 15 -11 0
-2 90 15 145 10 33 21 44 60 64 31 16 43 26 35 31 -8 5 -10 15 -5 26 6 17 8
16 17 -7 6 -18 29 -37 71 -60z m444 -26 c-4 -3 0 -17 8 -30 19 -29 6 -30 -24
-2 -18 17 -20 23 -9 30 16 10 34 12 25 2z m-267 -374 c0 -11 -4 -18 -10 -14
-5 3 -7 12 -3 20 7 21 13 19 13 -6z m-178 -84 c14 -30 22 -55 19 -55 -13 0 -8
-29 6 -34 19 -8 16 -36 -5 -36 -10 0 -27 -7 -39 -15 -32 -22 -68 -9 -93 32
-25 43 -25 73 -1 99 10 11 21 29 25 40 4 13 16 21 34 22 25 2 31 -4 54 -53z
m53 5 c13 -6 15 -9 5 -9 -8 0 -22 4 -30 9 -18 12 -2 12 25 0z m315 -446 c0 -3
-7 -12 -15 -20 -16 -17 -18 -14 -9 10 6 15 24 23 24 10z m-1463 -1846 c-3 -8
-6 -5 -6 6 -1 11 2 17 5 13 3 -3 4 -12 1 -19z m1970 -1130 c-3 -8 -6 -5 -6 6
-1 11 2 17 5 13 3 -3 4 -12 1 -19z m77 -206 c19 -65 37 -148 41 -183 l6 -64
-17 35 c-17 36 -45 133 -46 160 0 8 -11 59 -24 112 -13 53 -24 100 -24 105 2
24 34 -61 64 -165z"/>
<path d="M2320 5419 c0 -5 -4 -8 -9 -5 -5 4 -7 -3 -4 -14 5 -19 6 -20 19 -3
16 22 18 33 4 33 -5 0 -10 -5 -10 -11z"/>
<path d="M2580 4790 c0 -5 5 -10 10 -10 6 0 10 5 10 10 0 6 -4 10 -10 10 -5 0
-10 -4 -10 -10z"/>
<path d="M2603 4620 c-2 -19 16 -27 30 -13 7 6 -11 33 -22 33 -4 0 -7 -9 -8
-20z"/>
<path d="M3269 4428 c17 -18 38 -47 48 -65 10 -18 21 -33 25 -33 23 0 -16 74
-54 104 -47 35 -55 33 -19 -6z"/>
<path d="M3340 4316 c0 -2 7 -9 15 -16 13 -11 14 -10 9 4 -5 14 -24 23 -24 12z"/>
<path d="M3403 4245 c15 -14 33 -25 40 -25 7 0 -1 12 -16 25 -15 14 -33 25
-40 25 -7 0 1 -12 16 -25z"/>
<path d="M3413 4192 c67 -132 78 -148 104 -161 15 -8 40 -21 56 -28 39 -20 57
-5 25 21 -14 12 -35 39 -47 62 -23 41 -100 114 -134 127 -17 6 -17 5 -4 -21z"/>
<path d="M2100 4086 c-56 -17 -78 -29 -87 -47 -18 -34 1 -36 84 -6 37 14 87
28 111 32 33 5 42 11 40 23 -5 25 -61 24 -148 -2z"/>
<path d="M3151 4036 c-18 -44 -35 -64 -94 -109 -40 -30 -108 -76 -152 -102
-108 -64 -243 -162 -256 -187 -16 -31 -3 -33 24 -4 13 14 29 26 35 26 9 0 32
10 97 44 30 15 199 108 284 155 41 22 80 41 88 41 26 0 84 32 98 54 8 12 18
41 24 64 9 43 9 44 -25 58 -18 8 -48 14 -67 14 -31 0 -35 -4 -56 -54z"/>
<path d="M3956 3792 c-4 -24 -6 -46 -2 -49 8 -8 18 42 14 68 -3 18 -6 13 -12
-19z"/>
<path d="M2065 3654 c-25 -39 -30 -87 -10 -104 15 -12 16 -11 10 13 -6 21 -4
27 9 27 18 0 22 26 5 32 -7 2 -4 10 7 18 16 14 17 13 11 -2 -4 -10 -2 -18 4
-18 6 0 9 -7 5 -15 -6 -17 5 -20 21 -4 8 8 13 8 17 0 10 -16 -2 -31 -38 -47
-17 -7 -25 -13 -18 -14 7 0 22 5 34 11 11 6 22 8 25 6 3 -3 -8 -12 -23 -20
-20 -10 -23 -16 -14 -22 9 -5 15 -4 18 3 2 7 10 12 17 12 19 0 36 35 28 57 -6
16 -78 93 -87 93 -2 0 -11 -12 -21 -26z"/>
<path d="M2002 3450 c0 -14 2 -19 5 -12 2 6 2 18 0 25 -3 6 -5 1 -5 -13z"/>
<path d="M1970 3428 c0 -13 7 -18 28 -17 21 1 22 2 7 6 -11 3 -23 10 -27 17
-5 7 -8 5 -8 -6z"/>
<path d="M2085 3420 c3 -5 8 -10 11 -10 2 0 4 5 4 10 0 6 -5 10 -11 10 -5 0
-7 -4 -4 -10z"/>
<path d="M1975 3330 c-3 -5 -1 -10 4 -10 6 0 11 5 11 10 0 6 -2 10 -4 10 -3 0
-8 -4 -11 -10z"/>
<path d="M3020 2679 c0 -41 4 -80 9 -88 6 -9 7 18 4 70 -7 106 -13 115 -13 18z"/>
<path d="M1641 2529 c-13 -39 -14 -42 -2 -35 13 8 32 66 21 66 -4 0 -13 -14
-19 -31z"/>
<path d="M3587 1817 c-4 -10 -7 -28 -6 -40 0 -21 1 -21 10 2 5 14 8 32 7 40
-3 13 -5 13 -11 -2z"/>
<path d="M3313 1194 c3 -11 17 -67 31 -127 14 -59 35 -124 46 -145 12 -20 19
-29 16 -18 -26 84 -76 269 -76 280 0 8 -5 18 -11 22 -7 4 -9 0 -6 -12z"/>
<path d="M2896 1048 c-35 -425 -58 -1069 -36 -1003 22 67 40 334 44 675 2 195
7 362 11 371 3 10 2 20 -3 23 -6 4 -13 -23 -16 -66z"/>
<path d="M1361 921 c-19 -66 -32 -124 -28 -127 4 -4 8 -1 11 7 35 117 57 209
55 223 -2 10 -19 -36 -38 -103z"/>
<path d="M3507 818 c-8 -18 -17 -46 -21 -63 -4 -16 -15 -39 -25 -50 -13 -15
-15 -29 -10 -55 l6 -35 3 35 c1 19 4 27 7 18 2 -9 0 -49 -6 -88 -5 -40 -7 -78
-4 -86 12 -32 19 -9 20 69 0 52 6 99 17 127 15 40 37 160 29 160 -1 0 -9 -15
-16 -32z"/>
<path d="M2360 479 c0 -5 9 -9 19 -9 11 0 23 -4 26 -10 3 -5 1 -10 -6 -10 -7
0 -10 -3 -6 -6 3 -3 14 -1 24 5 10 6 12 11 6 11 -7 0 -13 6 -13 13 0 6 -11 13
-25 13 -14 1 -25 -2 -25 -7z"/>
<path d="M2480 339 c0 -7 -8 -18 -17 -26 -17 -13 -17 -14 1 -11 19 3 43 48 26
48 -6 0 -10 -5 -10 -11z"/>
<path d="M2287 309 c-20 -20 -26 -35 -22 -49 3 -11 3 -25 -2 -32 -11 -18 -13
-32 -20 -135 l-6 -93 67 0 67 0 -6 62 c-4 35 -13 93 -21 130 -8 37 -14 80 -14
95 0 47 -12 53 -43 22z"/>
<path d="M3456 316 c-55 -30 -59 -51 -6 -27 47 21 66 36 53 44 -4 3 -26 -5
-47 -17z"/>
<path d="M3325 270 c-8 -13 5 -13 25 0 13 8 13 10 -2 10 -9 0 -20 -4 -23 -10z"/>
<path d="M1480 230 c0 -5 5 -10 10 -10 6 0 10 5 10 10 0 6 -4 10 -10 10 -5 0
-10 -4 -10 -10z"/>
<path d="M3437 185 c-4 -8 -2 -17 3 -20 6 -4 10 3 10 14 0 25 -6 27 -13 6z"/>
<path d="M3343 173 c-32 -6 -29 -31 2 -29 17 1 25 7 25 19 0 9 -1 16 -2 16 -2
-1 -13 -4 -25 -6z"/>
<path d="M3323 123 c4 -3 -1 -15 -10 -26 -17 -20 -17 -20 7 -14 14 4 33 7 44
7 14 0 16 3 7 13 -6 8 -8 17 -4 20 3 4 -6 7 -22 7 -16 0 -25 -3 -22 -7z"/>
<path d="M3303 28 c-28 -13 -30 -28 -5 -28 19 0 42 18 42 32 0 10 -10 9 -37
-4z"/>
</g>
</svg>
